<svg width="20" height="20" viewBox="0 0 20 20" fill="none" xmlns="http://www.w3.org/2000/svg">
<path d="M5.29791 17.5628C4.625 17.5628 4.06093 17.3352 3.60573 16.88C3.15052 16.4248 2.92291 15.8607 2.92291 15.1878V4.10449C2.92291 3.44477 3.15052 2.88401 3.60573 2.4222C4.06093 1.96039 4.625 1.72949 5.29791 1.72949H12.4229C12.8583 1.72949 13.2311 1.88453 13.5411 2.1946C13.8512 2.50467 14.0062 2.87741 14.0062 3.31283V12.8128C14.0062 13.2482 13.8512 13.621 13.5411 13.9311C13.2311 14.2411 12.8583 14.3962 12.4229 14.3962H5.29791C5.07361 14.3962 4.88559 14.472 4.73385 14.6238C4.58211 14.7755 4.50625 14.9635 4.50625 15.1878C4.50625 15.4121 4.58211 15.6002 4.73385 15.7519C4.88559 15.9036 5.07361 15.9795 5.29791 15.9795H15.5896V4.10449C15.5896 3.88019 15.6654 3.69217 15.8172 3.54043C15.9689 3.38869 16.1569 3.31283 16.3812 3.31283C16.6056 3.31283 16.7936 3.38869 16.9453 3.54043C17.097 3.69217 17.1729 3.88019 17.1729 4.10449V15.9795C17.1729 16.4149 17.0179 16.7877 16.7078 17.0977C16.3977 17.4078 16.025 17.5628 15.5896 17.5628H5.29791ZM6.88125 12.8128C7.10555 12.8128 7.29357 12.737 7.44531 12.5852C7.59704 12.4335 7.67291 12.2455 7.67291 12.0212V4.10449C7.67291 3.88019 7.59704 3.69217 7.44531 3.54043C7.29357 3.38869 7.10555 3.31283 6.88125 3.31283C6.65694 3.31283 6.46892 3.38869 6.31718 3.54043C6.16545 3.69217 6.08958 3.88019 6.08958 4.10449V12.0212C6.08958 12.2455 6.16545 12.4335 6.31718 12.5852C6.46892 12.737 6.65694 12.8128 6.88125 12.8128Z" fill="#001B2B"/>
</svg>
