<svg width="32" height="32" viewBox="0 0 32 32" fill="none" xmlns="http://www.w3.org/2000/svg">
<g clip-path="url(#clip0_21_369)">
<path d="M16.0488 0.384766C11.8394 0.384766 11.3111 0.403172 9.65779 0.478412C8.00772 0.553974 6.88141 0.815214 5.89589 1.19852C4.87646 1.59441 4.01171 2.12399 3.15019 2.98586C2.28801 3.8474 1.75844 4.71217 1.36126 5.7313C0.976999 6.71716 0.715442 7.84382 0.641172 9.49328C0.567226 11.1466 0.547852 11.6752 0.547852 15.8848C0.547852 20.0943 0.566581 20.621 0.641496 22.2743C0.71738 23.9244 0.978614 25.0508 1.36159 26.0363C1.7578 27.0557 2.28737 27.9205 3.14922 28.7821C4.01042 29.6442 4.87517 30.1751 5.89395 30.571C6.88012 30.9543 8.00675 31.2156 9.6565 31.2911C11.3098 31.3664 11.8378 31.3848 16.0469 31.3848C20.2567 31.3848 20.7833 31.3664 22.4366 31.2911C24.0867 31.2156 25.2143 30.9543 26.2005 30.571C27.2196 30.1751 28.0831 29.6442 28.9443 28.7821C29.8064 27.9205 30.336 27.0557 30.7332 26.0366C31.1142 25.0508 31.3758 23.9241 31.4533 22.2746C31.5275 20.6213 31.5469 20.0943 31.5469 15.8848C31.5469 11.6752 31.5275 11.1469 31.4533 9.4936C31.3758 7.84349 31.1142 6.71716 30.7332 5.73162C30.336 4.71217 29.8064 3.8474 28.9443 2.98586C28.0821 2.12367 27.2199 1.59409 26.1995 1.19852C25.2114 0.815214 24.0845 0.553974 22.4344 0.478412C20.7811 0.403172 20.2547 0.384766 16.044 0.384766H16.0488ZM14.6584 3.17799C15.0711 3.17735 15.5315 3.17799 16.0488 3.17799C20.1873 3.17799 20.6778 3.19285 22.312 3.26712C23.8232 3.33622 24.6434 3.58874 25.1898 3.8009C25.9131 4.08184 26.4288 4.41767 26.9709 4.96017C27.5134 5.50267 27.8493 6.01934 28.1308 6.74267C28.343 7.2884 28.5958 8.10861 28.6646 9.61986C28.7389 11.2538 28.755 11.7446 28.755 15.8812C28.755 20.0178 28.7389 20.5086 28.6646 22.1426C28.5955 23.6538 28.343 24.474 28.1308 25.0198C27.8499 25.7431 27.5134 26.2581 26.9709 26.8003C26.4285 27.3428 25.9134 27.6786 25.1898 27.9596C24.6441 28.1727 23.8232 28.4246 22.312 28.4937C20.6781 28.568 20.1873 28.5841 16.0488 28.5841C11.9101 28.5841 11.4196 28.568 9.78567 28.4937C8.27445 28.4239 7.45426 28.1714 6.90757 27.9593C6.18425 27.6783 5.66759 27.3425 5.1251 26.8C4.58261 26.2575 4.24679 25.7421 3.96521 25.0185C3.75306 24.4727 3.50022 23.6525 3.43144 22.1413C3.35717 20.5073 3.34232 20.0165 3.34232 15.8773C3.34232 11.7382 3.35717 11.2499 3.43144 9.61598C3.50054 8.10473 3.75306 7.28453 3.96521 6.73815C4.24614 6.01482 4.58261 5.49815 5.1251 4.95565C5.66759 4.41315 6.18425 4.07732 6.90757 3.79573C7.45393 3.58261 8.27445 3.33073 9.78567 3.26131C11.2155 3.19672 11.7696 3.17735 14.6584 3.17412V3.17799ZM24.3224 5.75164C23.2956 5.75164 22.4625 6.5838 22.4625 7.61099C22.4625 8.63787 23.2956 9.47099 24.3224 9.47099C25.3493 9.47099 26.1824 8.63787 26.1824 7.61099C26.1824 6.58412 25.3493 5.75099 24.3224 5.75099V5.75164ZM16.0488 7.92487C11.6531 7.92487 8.0891 11.4889 8.0891 15.8848C8.0891 20.2806 11.6531 23.843 16.0488 23.843C20.4446 23.843 24.0073 20.2806 24.0073 15.8848C24.0073 11.4889 20.4446 7.92487 16.0488 7.92487ZM16.0488 10.7181C18.9021 10.7181 21.2154 13.0312 21.2154 15.8848C21.2154 18.7381 18.9021 21.0514 16.0488 21.0514C13.1953 21.0514 10.8823 18.7381 10.8823 15.8848C10.8823 13.0312 13.1953 10.7181 16.0488 10.7181Z" fill="white"/>
</g>
<defs>
<clipPath id="clip0_21_369">
<rect width="31" height="31" fill="white" transform="translate(0.547852 0.384766)"/>
</clipPath>
</defs>
</svg>
