<svg width="19" height="19" viewBox="0 0 19 19" fill="none" xmlns="http://www.w3.org/2000/svg">
<g clip-path="url(#clip0_8_414)">
<path d="M2.64791 16.396C2.17354 16.396 1.76759 16.2269 1.43006 15.8887C1.09196 15.55 0.922913 15.143 0.922913 14.6677V1.70538C0.922913 1.46054 0.980413 1.31277 1.09541 1.26207C1.21041 1.21195 1.35416 1.27331 1.52666 1.44614L2.3676 2.28869L3.18698 1.46774C3.27323 1.38133 3.36666 1.31652 3.46729 1.27331C3.56791 1.2301 3.67572 1.2085 3.79072 1.2085C3.90573 1.2085 4.01354 1.22636 4.11416 1.26207C4.21479 1.29837 4.30823 1.35972 4.39448 1.44614L5.23541 2.28869L6.07635 1.44614C6.1626 1.35972 6.25604 1.29837 6.35666 1.26207C6.45729 1.22636 6.5651 1.2085 6.6801 1.2085C6.7951 1.2085 6.90291 1.2301 7.00354 1.27331C7.10416 1.31652 7.1976 1.38133 7.28385 1.46774L8.10323 2.28869L8.94416 1.44614C9.03041 1.35972 9.12385 1.29837 9.22447 1.26207C9.3251 1.22636 9.43291 1.2085 9.54791 1.2085C9.66291 1.2085 9.77073 1.22636 9.87135 1.26207C9.97198 1.29837 10.0654 1.35972 10.1517 1.44614L10.9926 2.28869L11.812 1.46774C11.8982 1.38133 11.9917 1.31652 12.0923 1.27331C12.1929 1.2301 12.3007 1.2085 12.4157 1.2085C12.5307 1.2085 12.6385 1.22636 12.7392 1.26207C12.8398 1.29837 12.9332 1.35972 13.0195 1.44614L13.8604 2.28869L14.7014 1.44614C14.7876 1.35972 14.881 1.29837 14.9817 1.26207C15.0823 1.22636 15.1901 1.2085 15.3051 1.2085C15.4201 1.2085 15.5279 1.2301 15.6285 1.27331C15.7292 1.31652 15.8226 1.38133 15.9089 1.46774L16.7282 2.28869L17.5692 1.44614C17.7417 1.27331 17.8854 1.21195 18.0004 1.26207C18.1154 1.31277 18.1729 1.46054 18.1729 1.70538V14.6677C18.1729 15.143 18.0042 15.55 17.6666 15.8887C17.3285 16.2269 16.9223 16.396 16.4479 16.396H2.64791ZM2.64791 14.6677H8.68541V9.48277H2.64791V14.6677ZM10.4104 14.6677H16.4479V12.9394H10.4104V14.6677ZM10.4104 11.2111H16.4479V9.48277H10.4104V11.2111ZM2.64791 7.75446H16.4479V5.162H2.64791V7.75446Z" fill="#001B2B"/>
</g>
<defs>
<clipPath id="clip0_8_414">
<rect width="18" height="18" fill="white" transform="translate(0.547913 0.645996)"/>
</clipPath>
</defs>
</svg>
