<svg width="17" height="20" viewBox="0 0 17 20" fill="none" xmlns="http://www.w3.org/2000/svg">
<g clip-path="url(#clip0_8_412)">
<path d="M4.44836 6.99696H7.79901C7.94792 6.99696 8.07823 6.93124 8.18991 6.79979C8.3016 6.66835 8.35745 6.51499 8.35745 6.33973C8.35745 6.16447 8.3016 6.01112 8.18991 5.87967C8.07823 5.74822 7.94792 5.6825 7.79901 5.6825H4.44836C4.29944 5.6825 4.16914 5.74822 4.05745 5.87967C3.94576 6.01112 3.88991 6.16447 3.88991 6.33973C3.88991 6.51499 3.94576 6.66835 4.05745 6.79979C4.16914 6.93124 4.29944 6.99696 4.44836 6.99696ZM4.44836 4.80619H7.79901C7.94792 4.80619 8.07823 4.74047 8.18991 4.60902C8.3016 4.47757 8.35745 4.32422 8.35745 4.14896C8.35745 3.97369 8.3016 3.82034 8.18991 3.68889C8.07823 3.55745 7.94792 3.49172 7.79901 3.49172H4.44836C4.29944 3.49172 4.16914 3.55745 4.05745 3.68889C3.94576 3.82034 3.88991 3.97369 3.88991 4.14896C3.88991 4.32422 3.94576 4.47757 4.05745 4.60902C4.16914 4.74047 4.29944 4.80619 4.44836 4.80619ZM12.0804 7.87328V2.61541H12.825C13.2345 2.61541 13.5852 2.78717 13.8771 3.13068C14.1685 3.47361 14.3142 3.88606 14.3142 4.36803H15.8033C16.0143 4.36803 16.191 4.45187 16.3335 4.61954C16.4764 4.78779 16.5479 4.99606 16.5479 5.24434C16.5479 5.49263 16.4764 5.70061 16.3335 5.86828C16.191 6.03653 16.0143 6.12065 15.8033 6.12065H14.3142C14.3142 6.60263 14.1685 7.01508 13.8771 7.358C13.5852 7.70152 13.2345 7.87328 12.825 7.87328H12.0804ZM8.35745 11.8167H3.88991V9.6259C3.07087 9.6259 2.36971 9.28267 1.78645 8.59623C1.20319 7.90979 0.91156 7.0846 0.91156 6.12065V4.36803C0.91156 3.40409 1.20319 2.5789 1.78645 1.89246C2.36971 1.20601 3.07087 0.862793 3.88991 0.862793H9.84662C10.2561 0.862793 10.6068 1.03426 10.8987 1.37719C11.1901 1.7207 11.3358 2.13344 11.3358 2.61541V7.87328C11.3358 8.35525 11.1901 8.7677 10.8987 9.11063C10.6068 9.45414 10.2561 9.6259 9.84662 9.6259H8.35745V11.8167ZM3.51762 16.6364C3.20738 16.6364 2.94379 16.5084 2.72687 16.2526C2.50945 15.9973 2.40074 15.687 2.40074 15.3219V14.0074C2.40074 13.6423 2.50945 13.3321 2.72687 13.0768C2.94379 12.8209 3.20738 12.693 3.51762 12.693H8.72974C9.03999 12.693 9.30357 12.8209 9.5205 13.0768C9.73792 13.3321 9.84662 13.6423 9.84662 14.0074V15.3219C9.84662 15.687 9.73792 15.9973 9.5205 16.2526C9.30357 16.5084 9.03999 16.6364 8.72974 16.6364H3.51762Z" fill="#001B2B"/>
</g>
<defs>
<clipPath id="clip0_8_412">
<rect width="16" height="19" fill="white" transform="translate(0.547913 0.145996)"/>
</clipPath>
</defs>
</svg>
