<svg width="32" height="32" viewBox="0 0 32 32" fill="none" xmlns="http://www.w3.org/2000/svg">
<path d="M28.3742 9.55211C28.3931 9.8254 28.3931 10.0987 28.3931 10.3745C28.3931 18.7784 21.9953 28.4707 10.2968 28.4707V28.4657C6.84105 28.4707 3.45705 27.4809 0.547852 25.6144C1.05035 25.6749 1.55537 25.7051 2.06164 25.7064C4.92551 25.7089 7.70751 24.748 9.96057 22.9785C7.23902 22.9269 4.85246 21.1524 4.01874 18.5618C4.97211 18.7457 5.95443 18.7079 6.89016 18.4522C3.92303 17.8528 1.78836 15.2458 1.78836 12.2182V12.1376C2.67245 12.6301 3.66233 12.9034 4.67489 12.9336C1.88029 11.0659 1.01887 7.34817 2.70645 4.44148C5.93554 8.41487 10.6998 10.8304 15.8142 11.0861C15.3017 8.87707 16.0019 6.5623 17.6542 5.00947C20.2158 2.60151 24.2446 2.72493 26.6526 5.28528C28.077 5.00443 29.4421 4.48178 30.6915 3.74126C30.2167 5.21349 29.223 6.46407 27.8956 7.25875C29.1563 7.11014 30.3879 6.77262 31.5479 6.25753C30.694 7.53708 29.6185 8.65164 28.3742 9.55211Z" fill="white"/>
</svg>
