<svg width="32" height="32" viewBox="0 0 32 32" fill="none" xmlns="http://www.w3.org/2000/svg">
<g clip-path="url(#clip0_21_371)">
<path fill-rule="evenodd" clip-rule="evenodd" d="M2.71006 23.2212L0.547852 31.1107L8.62667 28.9935C10.8527 30.2065 13.3587 30.846 15.9091 30.847H15.9157C24.315 30.847 31.1521 24.0161 31.1558 15.6217C31.1572 11.5533 29.5739 7.72802 26.6963 4.85012C23.8187 1.97223 19.9924 0.386836 15.9159 0.384766C7.51543 0.384766 0.679378 7.21445 0.675857 15.6095C0.67263 18.2813 1.37427 20.9068 2.71006 23.2212ZM3.2488 15.6105C3.25129 8.63322 8.93343 2.95671 15.9205 2.95671C17.5846 2.95278 19.2329 3.27875 20.7701 3.91575C22.3072 4.55276 23.7027 5.48815 24.8757 6.66777C26.0552 7.84098 26.9901 9.23636 27.6264 10.7731C28.2626 12.3099 28.5875 13.9575 28.5822 15.6206C28.5795 22.5983 22.8974 28.2755 15.9157 28.2755H15.911C13.6375 28.2742 11.4082 27.6644 9.46389 26.5112L9.00096 26.2371L4.20677 27.4934L5.48661 22.824L5.18524 22.3452C3.91671 20.3279 3.24536 17.993 3.2488 15.6105Z" fill="white"/>
<path fill-rule="evenodd" clip-rule="evenodd" d="M12.7153 10.2032C12.4715 9.66267 12.2149 9.65172 11.9833 9.64236L11.3599 9.63477C11.1429 9.63477 10.7905 9.71599 10.4926 10.0409C10.1946 10.3658 9.35406 11.1511 9.35406 12.7483C9.35406 14.3455 10.5196 15.8889 10.6821 16.1058C10.8445 16.3226 12.9322 19.7048 16.2384 21.006C18.9858 22.0874 19.5449 21.8723 20.1415 21.8183C20.7381 21.7643 22.0659 21.033 22.3368 20.2749C22.6077 19.5169 22.6078 18.8674 22.5266 18.7316C22.4454 18.5958 22.2285 18.5151 21.903 18.3526C21.5774 18.1902 19.9786 17.4049 19.6804 17.2965C19.3823 17.188 19.1656 17.1342 18.9485 17.4591C18.7314 17.784 18.1088 18.5149 17.919 18.7316C17.7291 18.9483 17.5397 18.9755 17.2141 18.8132C16.8886 18.6509 15.8412 18.308 14.5985 17.202C13.6316 16.3415 12.9789 15.2788 12.7889 14.9541C12.5989 14.6293 12.7687 14.4534 12.9318 14.2917C13.0778 14.1462 13.257 13.9126 13.42 13.7231C13.5829 13.5336 13.6365 13.3982 13.7448 13.1818C13.8531 12.9655 13.7991 12.7755 13.7177 12.6132C13.6363 12.451 13.0044 10.8453 12.7153 10.2032Z" fill="white"/>
</g>
<defs>
<clipPath id="clip0_21_371">
<rect width="31" height="31" fill="white" transform="translate(0.547852 0.384766)"/>
</clipPath>
</defs>
</svg>
