<svg width="271" height="70" viewBox="0 0 271 70" fill="none" xmlns="http://www.w3.org/2000/svg">
<ellipse cx="7.99095" cy="7.87572" rx="7.49095" ry="7.49095" fill="#EF1019"/>
<rect x="18.6031" y="0.384766" width="14.9819" height="14.9819" rx="7.49095" fill="#359830"/>
<rect x="36.7063" y="0.384766" width="14.9819" height="14.9819" rx="7.49095" fill="#359830"/>
<rect x="18.6031" y="18.4883" width="14.9819" height="14.9819" rx="7.49095" fill="#359830"/>
<rect x="18.6031" y="36.5908" width="14.9819" height="14.9819" rx="7.49095" fill="#359830"/>
<rect x="18.6031" y="54.6943" width="14.9819" height="14.9819" rx="7.49095" fill="#359830"/>
<rect x="36.7063" y="36.5908" width="14.9819" height="14.9819" rx="7.49095" fill="#359830"/>
<rect x="0.5" y="18.4883" width="14.9819" height="14.9819" rx="7.49095" fill="#359830"/>
<rect x="0.5" y="36.5908" width="14.9819" height="14.9819" rx="7.49095" fill="#359830"/>
<rect x="0.5" y="54.6943" width="14.9819" height="14.9819" rx="7.49095" fill="#359830"/>
<path d="M63.5936 50.4807V35.4407H66.7826V50.4807H63.5936Z" fill="white"/>
<path d="M83.9109 50.4807H79.8577L73.315 39.103H73.2224C73.2499 39.5762 73.2739 40.0528 73.2945 40.5329C73.315 41.013 73.3356 41.493 73.3562 41.9731C73.3767 42.4463 73.3973 42.923 73.4179 43.403V50.4807H70.5683V35.4407H74.5906L81.1231 46.7053H81.1951C81.1813 46.2389 81.1642 45.776 81.1436 45.3165C81.1231 44.857 81.1025 44.3975 81.0819 43.938C81.0682 43.4785 81.0545 43.019 81.0408 42.5595V35.4407H83.9109V50.4807Z" fill="white"/>
<path d="M96.5848 46.3041C96.5848 47.1956 96.3688 47.9706 95.9367 48.629C95.5046 49.2874 94.8737 49.7949 94.0438 50.1515C93.2209 50.5081 92.2196 50.6864 91.04 50.6864C90.5187 50.6864 90.0078 50.6521 89.5072 50.5835C89.0134 50.515 88.5367 50.4155 88.0772 50.2852C87.6246 50.1481 87.1925 49.98 86.781 49.7811V46.8184C87.4943 47.1339 88.235 47.4185 89.0031 47.6723C89.7712 47.926 90.5325 48.0529 91.2869 48.0529C91.8081 48.0529 92.2264 47.9843 92.5419 47.8471C92.8642 47.71 93.0974 47.5214 93.2414 47.2813C93.3855 47.0413 93.4575 46.767 93.4575 46.4584C93.4575 46.0812 93.3306 45.7588 93.0768 45.4914C92.8231 45.2239 92.4733 44.9736 92.0275 44.7404C91.5886 44.5072 91.0914 44.2569 90.5359 43.9894C90.1861 43.8248 89.8055 43.6259 89.394 43.3928C88.9825 43.1527 88.5916 42.8612 88.2213 42.5183C87.8509 42.1754 87.5457 41.7605 87.3057 41.2736C87.0725 40.7798 86.9559 40.19 86.9559 39.5042C86.9559 38.6058 87.1617 37.8376 87.5732 37.1998C87.9847 36.562 88.571 36.0751 89.3323 35.739C90.1004 35.3961 91.0057 35.2247 92.0481 35.2247C92.83 35.2247 93.5741 35.3173 94.2805 35.5024C94.9937 35.6807 95.7378 35.9414 96.5128 36.2843L95.4841 38.7635C94.7914 38.4823 94.1707 38.2663 93.6221 38.1154C93.0734 37.9577 92.5145 37.8788 91.9452 37.8788C91.5475 37.8788 91.208 37.9439 90.9268 38.0742C90.6456 38.1977 90.433 38.376 90.289 38.6092C90.145 38.8355 90.073 39.0995 90.073 39.4013C90.073 39.7579 90.1758 40.0597 90.3816 40.3066C90.5942 40.5466 90.9097 40.7798 91.328 41.0061C91.7532 41.2324 92.2813 41.4965 92.9123 41.7982C93.6804 42.1617 94.3353 42.5423 94.8771 42.9401C95.4258 43.331 95.8475 43.794 96.1424 44.3289C96.4374 44.857 96.5848 45.5154 96.5848 46.3041Z" fill="white"/>
<path d="M105.113 50.4807H101.924V38.0948H97.8398V35.4407H109.197V38.0948H105.113V50.4807Z" fill="white"/>
<path d="M111.512 50.4807V35.4407H114.701V50.4807H111.512Z" fill="white"/>
<path d="M124.288 50.4807H121.099V38.0948H117.015V35.4407H128.372V38.0948H124.288V50.4807Z" fill="white"/>
<path d="M142.929 35.4407V45.1725C142.929 46.208 142.699 47.1442 142.24 47.9809C141.787 48.8107 141.098 49.4691 140.172 49.956C139.253 50.443 138.094 50.6864 136.695 50.6864C134.706 50.6864 133.19 50.1789 132.148 49.1639C131.105 48.1489 130.584 46.8047 130.584 45.1313V35.4407H133.763V44.6478C133.763 45.8891 134.017 46.7601 134.524 47.2608C135.032 47.7614 135.783 48.0117 136.777 48.0117C137.477 48.0117 138.042 47.8917 138.475 47.6517C138.913 47.4116 139.236 47.0413 139.442 46.5407C139.647 46.04 139.75 45.4022 139.75 44.6272V35.4407H142.929Z" fill="white"/>
<path d="M152.414 50.4807H149.225V38.0948H145.141V35.4407H156.498V38.0948H152.414V50.4807Z" fill="white"/>
<path d="M172.464 42.9401C172.464 44.0991 172.32 45.1553 172.032 46.1086C171.743 47.055 171.305 47.8711 170.715 48.557C170.132 49.2428 169.391 49.7709 168.493 50.1412C167.594 50.5047 166.531 50.6864 165.304 50.6864C164.076 50.6864 163.013 50.5047 162.115 50.1412C161.216 49.7709 160.472 49.2428 159.882 48.557C159.299 47.8711 158.864 47.0516 158.576 46.0983C158.288 45.145 158.144 44.0854 158.144 42.9195C158.144 41.3627 158.397 40.0083 158.905 38.8561C159.419 37.697 160.208 36.7986 161.271 36.1608C162.334 35.523 163.685 35.2041 165.324 35.2041C166.956 35.2041 168.297 35.523 169.347 36.1608C170.403 36.7986 171.185 37.697 171.692 38.8561C172.206 40.0151 172.464 41.3765 172.464 42.9401ZM161.487 42.9401C161.487 43.9894 161.617 44.8947 161.878 45.656C162.145 46.4104 162.56 46.9933 163.123 47.4048C163.685 47.8094 164.412 48.0117 165.304 48.0117C166.209 48.0117 166.943 47.8094 167.505 47.4048C168.068 46.9933 168.476 46.4104 168.729 45.656C168.99 44.8947 169.12 43.9894 169.12 42.9401C169.12 41.3627 168.825 40.1214 168.236 39.2161C167.646 38.3109 166.675 37.8582 165.324 37.8582C164.426 37.8582 163.692 38.064 163.123 38.4754C162.56 38.8801 162.145 39.463 161.878 40.2243C161.617 40.9787 161.487 41.884 161.487 42.9401Z" fill="white"/>
<path d="M184.191 50.4807H181.053V35.4407H189.674V38.0537H184.191V41.932H189.294V44.5346H184.191V50.4807Z" fill="white"/>
<path d="M201.278 50.4807H192.616V35.4407H201.278V38.0537H195.805V41.3559H200.898V43.9688H195.805V47.8471H201.278V50.4807Z" fill="white"/>
<path d="M216.905 42.8167C216.905 44.5106 216.579 45.9269 215.927 47.0653C215.283 48.1969 214.346 49.0507 213.119 49.6268C211.891 50.1961 210.413 50.4807 208.685 50.4807H204.426V35.4407H209.148C210.725 35.4407 212.094 35.7219 213.253 36.2843C214.412 36.8398 215.31 37.6662 215.948 38.7635C216.586 39.8539 216.905 41.205 216.905 42.8167ZM213.592 42.899C213.592 41.7879 213.427 40.8758 213.098 40.1626C212.776 39.4425 212.296 38.9109 211.658 38.568C211.027 38.2251 210.245 38.0537 209.313 38.0537H207.615V47.8471H208.983C210.54 47.8471 211.696 47.4322 212.45 46.6024C213.211 45.7725 213.592 44.5381 213.592 42.899Z" fill="white"/>
<path d="M228.683 50.4807H220.022V35.4407H228.683V38.0537H223.211V41.3559H228.303V43.9688H223.211V47.8471H228.683V50.4807Z" fill="white"/>
<path d="M236.214 35.4407C237.579 35.4407 238.703 35.6053 239.588 35.9345C240.48 36.2637 241.141 36.7609 241.573 37.4261C242.005 38.0914 242.221 38.9315 242.221 39.9465C242.221 40.6323 242.091 41.2324 241.831 41.7468C241.57 42.2612 241.227 42.6967 240.802 43.0533C240.377 43.4099 239.917 43.7014 239.423 43.9277L243.847 50.4807H240.308L236.718 44.7095H235.02V50.4807H231.831V35.4407H236.214ZM235.987 38.0537H235.02V42.1171H236.049C237.105 42.1171 237.86 41.9423 238.312 41.5925C238.772 41.2359 239.002 40.7146 239.002 40.0288C239.002 39.3156 238.755 38.8081 238.261 38.5063C237.774 38.2046 237.016 38.0537 235.987 38.0537Z" fill="white"/>
<path d="M254.947 50.4807L253.856 46.9007H248.373L247.283 50.4807H243.847L249.155 35.379H253.054L258.383 50.4807H254.947ZM253.095 44.226L252.005 40.7284C251.936 40.4952 251.844 40.1968 251.727 39.8334C251.617 39.463 251.504 39.0893 251.387 38.7121C251.278 38.328 251.189 37.9954 251.12 37.7142C251.051 37.9954 250.955 38.3451 250.832 38.7635C250.715 39.175 250.602 39.5659 250.492 39.9362C250.383 40.3066 250.304 40.5706 250.256 40.7284L249.176 44.226H253.095Z" fill="white"/>
<path d="M260.286 50.4807V35.4407H263.475V47.8471H269.575V50.4807H260.286Z" fill="white"/>
<path d="M66.1201 57.3985C67.644 57.3985 68.756 57.6973 69.456 58.2951C70.1614 58.8874 70.5142 59.7382 70.5142 60.8475C70.5142 61.3483 70.4307 61.8249 70.2638 62.2772C70.1022 62.7242 69.8383 63.12 69.4722 63.4646C69.106 63.8038 68.624 64.0731 68.0263 64.2723C67.434 64.4662 66.707 64.5631 65.8454 64.5631H64.4076V69.2076H63.0345V57.3985H66.1201ZM65.9908 58.5697H64.4076V63.3838H65.692C66.4458 63.3838 67.0732 63.303 67.574 63.1415C68.0802 62.9799 68.4598 62.7188 68.7129 62.358C68.966 61.9918 69.0925 61.5072 69.0925 60.9041C69.0925 60.1179 68.8421 59.5336 68.3413 59.1513C67.8405 58.7635 67.057 58.5697 65.9908 58.5697Z" fill="white"/>
<path d="M74.1248 60.3548V69.2076H72.7839V60.3548H74.1248ZM73.4705 57.0431C73.6913 57.0431 73.8797 57.1158 74.0359 57.2611C74.1975 57.4012 74.2782 57.6219 74.2782 57.9235C74.2782 58.2197 74.1975 58.4404 74.0359 58.5858C73.8797 58.7312 73.6913 58.8039 73.4705 58.8039C73.2389 58.8039 73.0451 58.7312 72.8889 58.5858C72.7381 58.4404 72.6627 58.2197 72.6627 57.9235C72.6627 57.6219 72.7381 57.4012 72.8889 57.2611C73.0451 57.1158 73.2389 57.0431 73.4705 57.0431Z" fill="white"/>
<path d="M80.2797 60.2094C81.3352 60.2094 82.1187 60.4463 82.6303 60.9202C83.1418 61.3941 83.3976 62.1507 83.3976 63.19V69.2076H82.4202L82.1618 67.8991H82.0972C81.8494 68.2222 81.591 68.4941 81.3217 68.7149C81.0525 68.9303 80.7402 69.0945 80.3847 69.2076C80.0347 69.3153 79.6039 69.3692 79.0924 69.3692C78.5539 69.3692 78.0746 69.2749 77.6546 69.0865C77.2399 68.898 76.9115 68.6126 76.6691 68.2303C76.4322 67.8479 76.3137 67.3633 76.3137 66.7763C76.3137 65.8932 76.6638 65.2147 77.3638 64.7408C78.0638 64.2669 79.1301 64.0085 80.5624 63.9654L82.0891 63.9008V63.3596C82.0891 62.5949 81.9248 62.0591 81.5964 61.7522C81.2679 61.4452 80.8048 61.2918 80.207 61.2918C79.7439 61.2918 79.3024 61.3591 78.8823 61.4937C78.4623 61.6283 78.0638 61.7872 77.6869 61.9703L77.2749 60.9525C77.6734 60.7479 78.1311 60.5729 78.6481 60.4275C79.1651 60.2821 79.7089 60.2094 80.2797 60.2094ZM82.0729 64.8458L80.724 64.9024C79.6201 64.9454 78.842 65.1258 78.3896 65.4436C77.9373 65.7613 77.7111 66.2109 77.7111 66.7925C77.7111 67.2987 77.8646 67.6729 78.1715 67.9152C78.4785 68.1576 78.885 68.2787 79.3912 68.2787C80.1774 68.2787 80.8209 68.0606 81.3217 67.6245C81.8225 67.1883 82.0729 66.534 82.0729 65.6616V64.8458Z" fill="white"/>
<path d="M93.4701 60.3548V69.2076H92.3716L92.1778 67.9637H92.1051C91.922 68.2706 91.685 68.5291 91.3942 68.7391C91.1035 68.9491 90.775 69.1053 90.4088 69.2076C90.048 69.3153 89.663 69.3692 89.2537 69.3692C88.5537 69.3692 87.9667 69.2561 87.4929 69.0299C87.019 68.8038 86.6609 68.4537 86.4186 67.9799C86.1816 67.506 86.0632 66.8975 86.0632 66.1544V60.3548H87.4202V66.0574C87.4202 66.7952 87.5871 67.3471 87.921 67.7133C88.2548 68.0741 88.7637 68.2545 89.4476 68.2545C90.1046 68.2545 90.6269 68.1306 91.0146 67.8829C91.4077 67.6352 91.6904 67.2717 91.8627 66.7925C92.035 66.3078 92.1212 65.7155 92.1212 65.0155V60.3548H93.4701Z" fill="white"/>
<path d="M97.6462 69.2076H96.3053V60.3548H97.6462V69.2076ZM99.3182 56.5342V56.6957C99.2105 56.8519 99.0624 57.0404 98.8739 57.2611C98.6908 57.4765 98.4862 57.7054 98.26 57.9477C98.0339 58.1847 97.805 58.4108 97.5735 58.6262C97.3473 58.8416 97.1373 59.0274 96.9434 59.1836H96.0468V58.9897C96.2191 58.7851 96.4076 58.5401 96.6122 58.2547C96.8169 57.9639 97.0161 57.6677 97.21 57.3662C97.4038 57.0592 97.5654 56.7819 97.6946 56.5342H99.3182Z" fill="white"/>
</svg>
