<svg width="149" height="70" viewBox="0 0 149 70" fill="none" xmlns="http://www.w3.org/2000/svg">
<path d="M0.640124 54.1587C0.658623 54.0078 0.662759 53.8869 0.667213 53.7296C0.660896 53.6778 0.65435 53.6619 0.664122 53.6269C0.803609 52.1966 0.930099 50.7858 1.04895 49.3741C1.17799 47.8419 1.29716 46.3094 1.42569 44.7772C1.54282 43.381 1.66713 41.9852 1.78762 40.5889C1.90938 39.1773 2.03091 37.7658 2.15154 36.3542C2.27348 34.9275 2.38315 33.4997 2.51846 32.0742C2.65236 30.6637 2.77194 29.2522 2.88184 27.8396C2.99055 26.4423 3.11604 25.0463 3.24349 23.6505C3.37507 22.2096 3.51065 20.7691 3.60918 19.3253C3.63986 18.8753 3.71381 18.4283 3.75281 17.9786C3.76612 17.8251 3.82026 17.7607 3.97188 17.7699C4.06242 17.7754 4.15359 17.7702 4.24445 17.7702C7.44048 17.7702 10.6365 17.77 13.8325 17.7703C14.361 17.7704 14.3502 17.7703 14.2989 18.3004C14.2018 19.3051 14.1206 20.3115 14.0291 21.3168C13.9213 22.5019 13.8046 23.6861 13.7012 24.8716C13.6213 25.7878 13.562 26.7059 13.4829 27.6224C13.3793 28.8229 13.2614 30.0222 13.1571 31.2227C13.0841 32.0638 13.0276 32.9063 12.9565 33.7476C12.8374 35.1591 12.71 36.57 12.5907 37.9815C12.4613 39.514 12.3404 41.0466 12.2096 42.5788C12.125 43.5691 12.0294 44.5581 11.9388 45.5472C12.1249 45.6612 12.3107 45.6126 12.486 45.6126C17.8631 45.6158 23.2402 45.6149 28.6174 45.6149C28.7083 45.6149 28.7992 45.6149 28.89 45.6149C29.405 45.6158 29.389 45.6144 29.3411 46.128C29.2613 46.9834 29.2092 47.8415 29.1369 48.6978C29.0166 50.1245 28.8904 51.5507 28.7648 52.977C28.7173 53.5165 28.6555 54.055 28.619 54.5959C28.604 54.8186 28.5068 54.8822 28.303 54.8604C28.1831 54.8477 28.0609 54.8582 27.9397 54.8582C18.8213 54.8591 9.70288 54.86 0.542224 54.8668C0.500001 54.8322 0.5 54.7918 0.5 54.7209C0.652532 54.5509 0.549587 54.3473 0.640124 54.1587Z" fill="#017CC4"/>
<path d="M46.8068 53.2784C46.8986 52.1399 46.9709 51.0413 47.0577 49.9437C47.1613 48.6365 47.2845 47.3312 47.3854 46.024C47.4677 44.9564 47.5249 43.887 47.6031 42.8189C47.6813 41.7521 47.7745 40.6863 47.8558 39.6196C47.9558 38.3122 48.0404 37.0034 48.1494 35.6966C48.2826 34.1042 48.4008 32.5107 48.5185 30.9171C48.6044 29.7596 48.7017 28.6029 48.7867 27.4452C48.883 26.1377 49.0112 24.8327 49.1134 23.5257C49.1948 22.488 49.2553 21.4487 49.3293 20.4104C49.3866 19.5983 49.4539 18.7867 49.5084 17.9744C49.5189 17.8124 49.5957 17.7669 49.7375 17.771C49.8284 17.7737 49.9193 17.7708 50.0102 17.7708C54.7211 17.7708 59.4325 17.7708 64.1435 17.7708C64.2344 17.7708 64.3258 17.775 64.4162 17.7704C64.5857 17.7618 64.6407 17.8403 64.6689 18.0081C64.9643 19.7783 65.2716 21.5466 65.5738 23.3158C65.8911 25.1743 66.2042 27.0334 66.5224 28.8917C66.871 30.9278 67.2228 32.9634 67.5732 34.9992C67.8314 36.499 68.0895 37.9988 68.3486 39.506C68.5058 39.4291 68.5172 39.2621 68.5663 39.1307C69.8534 35.6782 71.1356 32.2237 72.4187 28.7695C73.7227 25.2587 75.0266 21.7479 76.3306 18.2372C76.3515 18.1807 76.3874 18.1281 76.4001 18.0701C76.4497 17.8441 76.576 17.7332 76.8151 17.7695C76.8742 17.7785 76.936 17.7708 76.9969 17.7708C81.3747 17.7708 85.7525 17.7708 90.1303 17.7708C90.2367 17.7708 90.3426 17.7734 90.4485 17.7715C90.5966 17.7687 90.6657 17.819 90.6498 17.9863C90.5916 18.5859 90.5425 19.1864 90.4957 19.787C90.4057 20.9444 90.318 22.102 90.2317 23.2596C90.1303 24.6131 90.0353 25.9672 89.9299 27.3204C89.8172 28.7631 89.6903 30.2045 89.5794 31.6473C89.4781 32.9699 89.4026 34.2946 89.2922 35.6164C89.1604 37.1934 89.0431 38.7713 88.9263 40.3495C88.8386 41.5367 88.7422 42.7239 88.6513 43.911C88.5623 45.0837 88.475 46.2563 88.3809 47.4285C88.2541 49.0065 88.1328 50.5845 88.0169 52.1635C87.9596 52.9452 87.8814 53.7256 87.8396 54.5088C87.8228 54.826 87.7878 54.8574 87.4501 54.8578C84.5263 54.8596 81.6029 54.8596 78.679 54.8578C78.3391 54.8574 78.3054 54.8233 78.3286 54.5537C78.3822 53.9238 78.4418 53.2943 78.4922 52.6639C78.5868 51.4776 78.679 50.2905 78.7681 49.1033C78.8658 47.7957 78.9467 46.4863 79.0567 45.1791C79.1894 43.6015 79.3063 42.023 79.4231 40.4445C79.5108 39.2568 79.6062 38.0696 79.6971 36.882C79.7867 35.7095 79.8858 34.5379 79.9662 33.3645C80.038 32.3121 80.1375 31.2616 80.2207 30.2099C80.2334 30.0449 80.2225 29.878 80.2225 29.6562C80.0739 29.8375 80.033 30.0176 79.9735 30.1841C79.0945 32.6446 78.2168 35.1054 77.3437 37.5679C76.5665 39.76 75.7984 41.9558 75.0203 44.1474C74.1767 46.5244 73.3254 48.8983 72.4791 51.274C72.1037 52.3267 71.7328 53.3811 71.3597 54.4347C71.2101 54.8574 71.2106 54.8587 70.7547 54.8587C67.9068 54.8592 65.0589 54.8587 62.2114 54.8587C62.1205 54.8587 62.0296 54.856 61.9387 54.8583C61.7714 54.8628 61.706 54.7878 61.6869 54.6165C61.6042 53.8824 61.5092 53.1498 61.4124 52.4176C61.2087 50.8791 60.9992 49.3415 60.7961 47.8025C60.6365 46.5922 60.4852 45.3809 60.3261 44.1701C60.1179 42.5866 59.903 41.0036 59.6952 39.4194C59.5384 38.2239 59.3912 37.0272 59.2344 35.8318C59.028 34.263 58.814 32.6952 58.6085 31.1263C58.4949 30.2592 58.3917 29.3908 58.2813 28.504C58.0599 28.7838 58.1517 29.1085 58.1249 29.4023C57.9986 30.7828 57.8909 32.165 57.7863 33.5474C57.7068 34.6004 57.6482 35.6549 57.5695 36.708C57.49 37.7751 57.3932 38.8409 57.3114 39.9078C57.2118 41.2163 57.1318 42.5257 57.0223 43.8333C56.8891 45.4259 56.7728 47.0199 56.6537 48.6138C56.5673 49.771 56.4696 50.9282 56.3846 52.0858C56.326 52.8825 56.2446 53.6779 56.2051 54.4765C56.1874 54.8355 56.1596 54.8578 55.7979 54.8578C52.8895 54.8596 49.9811 54.8596 47.0727 54.8578C46.6687 54.8578 46.6709 54.8419 46.7155 54.4469C46.7573 54.0729 46.7687 53.6947 46.8068 53.2784Z" fill="#017CC4"/>
<path d="M115.669 52.7988C114.64 53.3751 113.584 53.7796 112.492 54.0932C111.651 54.3345 110.795 54.4904 109.931 54.6313C109.291 54.7354 108.644 54.7872 108.008 54.9104C107.768 54.9568 107.528 54.9618 107.288 54.9736C106.821 54.9959 106.348 55.0436 105.888 55.0236C105.088 54.989 104.287 54.999 103.488 54.9677C102.235 54.9186 100.995 54.7432 99.7537 54.5891C99.2629 54.5277 98.7847 54.3691 98.2943 54.2973C97.8135 54.2268 97.3512 54.0996 96.8895 53.9591C95.7927 53.6264 94.7924 53.0965 93.8852 52.4093C93.4802 52.1025 93.1393 51.7039 92.7984 51.3207C91.6535 50.034 90.8841 48.5441 90.41 46.8897C90.176 46.0735 90.091 45.2363 89.9537 44.405C89.8664 43.8777 89.8814 43.3514 89.8614 42.8242C89.8469 42.4565 89.9287 42.3947 90.2982 42.3401C91.0191 42.2338 91.7449 42.2565 92.4689 42.2211C92.7844 42.2056 93.0984 42.1524 93.4138 42.1347C94.5742 42.0693 95.7364 42.0329 96.8945 41.9438C97.9312 41.8638 98.972 41.8479 100.006 41.7134C100.567 41.6402 100.603 41.7029 100.663 42.2697C100.73 42.8987 100.8 43.526 100.953 44.1445C101.304 45.5671 102.133 46.627 103.418 47.2843C104.459 47.8169 105.607 47.9383 106.772 47.8833C107.55 47.8465 108.312 47.696 109.019 47.3924C110.227 46.8734 111.157 46.0516 111.588 44.7508C111.784 44.1573 111.85 43.57 111.619 42.981C111.296 42.1574 110.802 41.4716 109.995 41.0484C109.287 40.6771 108.538 40.4344 107.774 40.2008C106.876 39.9272 105.967 39.7167 105.062 39.4843C104.48 39.3348 103.889 39.2109 103.314 39.0374C101.262 38.4183 99.2038 37.8067 97.3449 36.6961C95.8841 35.823 94.6328 34.708 93.742 33.252C93.3134 32.5508 93.0234 31.7728 92.9407 30.9184C92.8944 30.4423 92.8639 29.9598 92.7916 29.4833C92.7207 29.0165 92.8462 28.5513 92.8816 28.0857C92.9739 26.8809 93.3393 25.7431 93.8888 24.6789C94.681 23.1443 95.7459 21.8217 97.1222 20.7567C98.3693 19.792 99.7692 19.1407 101.242 18.606C102.584 18.1186 103.966 17.8607 105.376 17.6884C107.487 17.4307 109.605 17.4696 111.717 17.5458C113.313 17.6034 114.886 17.9022 116.423 18.3854C117.562 18.7435 118.558 19.3678 119.592 19.9222C120.307 20.3057 120.826 20.9334 121.338 21.5908C121.651 21.9113 121.577 22.3101 121.619 22.6714C121.666 23.0741 121.642 23.4841 121.631 23.8904C121.6 25.1258 121.677 26.358 121.722 27.5913C121.73 27.8156 121.741 28.0444 121.626 28.2937C121.324 28.5153 120.994 28.5185 120.685 28.5294C119.037 28.5879 117.394 28.7369 115.75 28.8402C114.905 28.8933 114.055 28.8529 113.213 28.9785C112.684 29.0574 112.481 28.8962 112.406 28.3657C112.339 27.884 112.259 27.4099 112.096 26.9497C111.7 25.8347 110.955 25.0472 109.831 24.6956C108.461 24.2665 107.061 24.1919 105.674 24.6504C104.686 24.9769 103.953 25.5845 103.634 26.6183C103.37 27.4757 103.727 28.3935 104.519 28.8362C105.335 29.2927 106.236 29.5298 107.133 29.7278C109.454 30.241 111.765 30.785 114.026 31.5304C115.192 31.9148 116.357 32.2939 117.454 32.8561C117.601 32.9319 117.757 32.9961 117.898 33.1511C117.965 33.2822 117.983 33.3871 117.983 33.4932C117.992 34.9759 118.041 36.4607 117.969 37.9406C117.896 39.4334 117.787 40.9262 117.628 42.4142C117.275 45.7135 116.695 48.9727 115.956 52.2052C115.909 52.4102 115.869 52.6229 115.669 52.7988Z" fill="#017CC4"/>
<path d="M34.1468 24.2528C34.2304 23.2346 34.3118 22.2586 34.3954 21.2828C34.4863 20.2165 34.5817 19.1506 34.669 18.084C34.6863 17.874 34.7431 17.7366 34.9912 17.7689C35.0953 17.7824 35.203 17.7709 35.3089 17.7709C38.4146 17.7709 41.5198 17.7709 44.6254 17.7709C44.6859 17.7709 44.7468 17.7706 44.8072 17.771C45.2608 17.7738 45.2703 17.7746 45.2331 18.2204C45.1145 19.6475 44.9863 21.0739 44.8658 22.5009C44.7349 24.0483 44.6104 25.5962 44.48 27.1436C44.3613 28.5555 44.2427 29.9673 44.1164 31.3785C43.9814 32.8942 43.8337 34.4088 43.6991 35.9245C43.6191 36.8257 43.5587 37.7286 43.481 38.63C43.376 39.8456 43.2596 41.0605 43.1551 42.2763C43.0764 43.1926 43.0142 44.1107 42.9351 45.027C42.8319 46.2278 42.7151 47.4273 42.6106 48.6281C42.5324 49.5293 42.4656 50.432 42.3915 51.3342C42.3015 52.4309 42.2052 53.5272 42.122 54.6243C42.1084 54.7998 42.0443 54.8698 41.8743 54.8598C41.7838 54.8543 41.6925 54.8589 41.6016 54.8589C38.405 54.8589 35.209 54.8589 32.0124 54.8589C31.952 54.8589 31.8911 54.8607 31.8306 54.8589C31.5315 54.8498 31.5388 54.8498 31.5652 54.5271C31.642 53.5799 31.7047 52.6318 31.787 51.6855C31.8892 50.4997 32.0115 49.3153 32.1138 48.1295C32.1947 47.1977 32.2515 46.2642 32.3319 45.3324C32.4347 44.1466 32.5551 42.9626 32.6592 41.7768C32.7383 40.8756 32.7987 39.9725 32.8764 39.0709C32.9814 37.8552 33.0996 36.6405 33.2041 35.4247C33.2832 34.5082 33.3432 33.59 33.4223 32.6735C33.5259 31.4728 33.6436 30.2734 33.7486 29.0728C33.8259 28.1865 33.8918 27.2992 33.965 26.4126C34.0236 25.7066 34.0854 25.001 34.1468 24.2528Z" fill="#017CC4"/>
<path d="M74.4729 68.7363C74.4824 68.9195 74.582 69.124 74.3797 69.2917C74.3447 69.139 74.3447 68.9831 74.3447 68.7881C74.3788 68.7463 74.4129 68.7431 74.4729 68.7363Z" fill="#79C4EE"/>
<path d="M144.287 29.7477C144.219 28.9523 138.924 21.9756 130.607 15.6353C133.947 38.5196 129.97 51.5412 129.243 54.2228C130.902 54.2228 139.379 51.9275 143.174 47.4961C144.537 39.6559 144.893 36.8152 144.287 29.7477Z" fill="white"/>
<path d="M147.878 39.8602C145.515 37.1105 140.22 32.8608 136.879 31.2246C139.788 42.7009 136.197 58.3813 133.834 61.5629C137.243 60.313 145.333 54.4498 146.605 52.5182C147.969 49.9275 149.219 44.7916 147.878 39.8602Z" fill="white"/>
<path d="M128.493 22.498C126.698 20.1573 123.88 17.5666 121.062 15.9077C122.062 25.9295 121.38 38.2921 120.29 48.1321C121.312 48.064 123.926 47.8594 127.107 47.6095C127.857 44.6097 129.221 30.6564 128.493 22.498Z" fill="white"/>
<path d="M125.107 35.6551C126.039 12.2708 124.721 7.06667 121.926 0.453613C128.769 5.93677 130.528 8.93499 133.579 14.1331L133.607 14.1797C134.675 16.7704 134.879 29.6329 135.22 38.223C131.607 36.4732 129.357 35.9732 125.107 35.6551Z" fill="white"/>
<path d="M122.926 31.8238C122.13 30.5058 119.608 28.9605 117.449 29.0968C118.404 36.0962 117.449 46.6862 114.654 56.6853C116.426 56.6398 117.904 56.8216 120.472 55.7081C122.335 50.3677 123.744 38.346 122.926 31.8238Z" fill="white"/>
<g filter="url(#filter0_d_54_2)">
<path d="M121.426 1.93165C121.108 1.56804 120.449 0.840835 119.153 0C120.13 2.63613 120.88 8.43108 120.721 9.65824C121.767 9.7946 122.244 10.0446 122.903 10.5673C122.994 8.54471 122.38 3.7724 121.426 1.93165Z" fill="white"/>
</g>
<path d="M144.287 29.7477C144.219 28.9523 138.924 21.9756 130.607 15.6353C133.947 38.5196 129.97 51.5412 129.243 54.2228C130.902 54.2228 139.379 51.9275 143.174 47.4961C144.537 39.6559 144.893 36.8152 144.287 29.7477Z" fill="#46C3EE" style="mix-blend-mode:multiply"/>
<path d="M147.878 39.8602C145.515 37.1105 140.22 32.8608 136.879 31.2246C139.788 42.7009 136.197 58.3813 133.834 61.5629C137.243 60.313 145.333 54.4498 146.605 52.5182C147.969 49.9275 149.219 44.7916 147.878 39.8602Z" fill="#63BF03" style="mix-blend-mode:multiply"/>
<path d="M128.493 22.498C126.698 20.1573 123.88 17.5666 121.062 15.9077C122.062 25.9295 121.38 38.2921 120.29 48.1321C121.312 48.064 123.926 47.8594 127.107 47.6095C127.857 44.6097 129.221 30.6564 128.493 22.498Z" fill="#FEC311" style="mix-blend-mode:multiply"/>
<path d="M125.107 35.6551C126.039 12.2708 124.721 7.06667 121.926 0.453613C128.769 5.93677 130.528 8.93499 133.579 14.1331L133.607 14.1797C134.675 16.7704 134.879 29.6329 135.22 38.223C131.607 36.4732 129.357 35.9732 125.107 35.6551Z" fill="#FF1289" style="mix-blend-mode:multiply"/>
<path d="M122.926 31.8238C122.13 30.5058 119.608 28.9605 117.449 29.0968C118.404 36.0962 117.449 46.6862 114.654 56.6853C116.426 56.6398 117.904 56.8216 120.472 55.7081C122.335 50.3677 123.744 38.346 122.926 31.8238Z" fill="#44C501" style="mix-blend-mode:multiply"/>
<g filter="url(#filter1_d_54_2)">
<path d="M121.426 1.93165C121.108 1.56804 120.449 0.840835 119.153 0C120.13 2.63613 120.88 8.43108 120.721 9.65824C121.767 9.7946 122.244 10.0446 122.903 10.5673C122.994 8.54471 122.38 3.7724 121.426 1.93165Z" fill="#38B9D9" style="mix-blend-mode:multiply" shape-rendering="crispEdges"/>
</g>
<defs>
<filter id="filter0_d_54_2" x="115.153" y="0" width="11.7585" height="18.5674" filterUnits="userSpaceOnUse" color-interpolation-filters="sRGB">
<feFlood flood-opacity="0" result="BackgroundImageFix"/>
<feColorMatrix in="SourceAlpha" type="matrix" values="0 0 0 0 0 0 0 0 0 0 0 0 0 0 0 0 0 0 127 0" result="hardAlpha"/>
<feOffset dy="4"/>
<feGaussianBlur stdDeviation="2"/>
<feComposite in2="hardAlpha" operator="out"/>
<feColorMatrix type="matrix" values="0 0 0 0 0 0 0 0 0 0 0 0 0 0 0 0 0 0 0.25 0"/>
<feBlend mode="normal" in2="BackgroundImageFix" result="effect1_dropShadow_54_2"/>
<feBlend mode="normal" in="SourceGraphic" in2="effect1_dropShadow_54_2" result="shape"/>
</filter>
<filter id="filter1_d_54_2" x="115.153" y="0" width="11.7585" height="18.5674" filterUnits="userSpaceOnUse" color-interpolation-filters="sRGB">
<feFlood flood-opacity="0" result="BackgroundImageFix"/>
<feColorMatrix in="SourceAlpha" type="matrix" values="0 0 0 0 0 0 0 0 0 0 0 0 0 0 0 0 0 0 127 0" result="hardAlpha"/>
<feOffset dy="4"/>
<feGaussianBlur stdDeviation="2"/>
<feComposite in2="hardAlpha" operator="out"/>
<feColorMatrix type="matrix" values="0 0 0 0 0 0 0 0 0 0 0 0 0 0 0 0 0 0 0.25 0"/>
<feBlend mode="normal" in2="BackgroundImageFix" result="effect1_dropShadow_54_2"/>
<feBlend mode="normal" in="SourceGraphic" in2="effect1_dropShadow_54_2" result="shape"/>
</filter>
</defs>
</svg>
